<?xml version="1.0" encoding="utf-8"?>
<!-- Generator: Adobe Illustrator 21.1.0, SVG Export Plug-In . SVG Version: 6.00 Build 0)  -->
<svg version="1.1" id="Слой_1" xmlns="http://www.w3.org/2000/svg" xmlns:xlink="http://www.w3.org/1999/xlink" x="0px" y="0px"
	 viewBox="0 0 144 40" style="enable-background:new 0 0 144 40;" xml:space="preserve">
<style type="text/css">
	.st0{fill:#626262;}
	.st1{fill:#8CA646;}
	.st2{fill:#FFFFFF;}
	.st3{font-family:'MyriadPro-BoldCond';}
	.st4{font-size:5.863px;}
</style>
<g>
	<path class="st0" d="M48.6,9.7v4.7h0.2L52,9.7h3.1l-4,5c1.5,0.4,2.1,1.4,2.6,2.7c0.4,1.2,0.8,2.4,1.3,3.6h-2.8
		c-0.4-0.8-0.6-1.6-0.9-2.5c-0.4-1.3-0.9-2.3-2.3-2.3h-0.5v4.7h-2.5V9.7H48.6z"/>
	<path class="st0" d="M56.3,9.9c0.8-0.1,1.9-0.2,3.5-0.2c1.6,0,2.7,0.3,3.5,0.9c0.7,0.6,1.2,1.5,1.2,2.6s-0.4,2.1-1,2.7
		c-0.9,0.8-2.2,1.2-3.7,1.2c-0.3,0-0.6,0-0.9-0.1v4.1h-2.5V9.9z M58.8,15c0.2,0.1,0.5,0.1,0.9,0.1c1.4,0,2.2-0.7,2.2-1.8
		c0-1-0.7-1.7-2-1.7c-0.5,0-0.9,0.1-1.1,0.1V15z"/>
	<path class="st0" d="M72.8,16.3h-4.2v2.7h4.7v2.1H66V9.7h7v2.1h-4.4v2.4h4.2V16.3z"/>
	<path class="st0" d="M84.2,9.7V19l1.1,0.1l-0.1,4.8h-2l-0.1-2.9h-6.6l-0.1,2.9h-2l-0.1-4.8l0.9-0.1c0.5-0.8,0.8-1.6,1.1-2.5
		c0.3-1.1,0.5-2.4,0.5-3.8v-3H84.2z M79.1,13.3c0,1.3-0.2,2.6-0.5,3.7c-0.2,0.7-0.5,1.4-0.8,1.9h3.8v-7.2h-2.5V13.3z"/>
	<path class="st0" d="M89.1,9.7v3.4c0,1.8,0,3.6-0.1,5.1H89c0.6-1.3,1.3-2.8,2-4l2.4-4.5h2.6v11.3h-2.4v-3.3c0-1.7,0-3.3,0.2-4.8
		h-0.1c-0.5,1.3-1.2,2.8-1.9,4l-2.3,4.1h-2.9V9.7H89.1z"/>
	<path class="st0" d="M100.5,11.9h-3V9.7h8.7v2.2h-3.1v9.2h-2.6V11.9z"/>
</g>
<g>
	<g>
		<path class="st0" d="M49.5,29.3v4.2l0.5,0l0,2.2h-0.7l0-1.5h-3.3l0,1.5h-0.7l0-2.2l0.4,0c0.2-0.3,0.4-0.6,0.5-1
			c0.2-0.6,0.3-1.2,0.3-1.9v-1.3H49.5z M47,30.8c0,0.6-0.1,1.3-0.3,1.8c-0.1,0.3-0.2,0.6-0.4,0.9h2.2V30H47V30.8z"/>
		<path class="st0" d="M55.4,31.7c0,1.8-1.2,2.6-2.4,2.6c-1.3,0-2.3-1-2.3-2.5c0-1.6,1.1-2.6,2.4-2.6C54.4,29.2,55.4,30.2,55.4,31.7
			z M51.5,31.8c0,1.1,0.6,1.9,1.5,1.9c0.8,0,1.5-0.8,1.5-1.9c0-0.8-0.4-1.9-1.4-1.9C52,29.9,51.5,30.8,51.5,31.8z"/>
		<path class="st0" d="M58.5,33.2c0.3,0.2,0.8,0.4,1.4,0.4c1.1,0,1.5-0.7,1.5-1.3c0-0.9-0.8-1.3-1.7-1.3h-0.5v-0.7h0.5
			c0.6,0,1.4-0.3,1.4-1.1c0-0.5-0.3-1-1.1-1c-0.5,0-1,0.2-1.3,0.4l-0.2-0.6c0.3-0.3,1-0.5,1.7-0.5c1.3,0,1.9,0.8,1.9,1.5
			c0,0.7-0.4,1.2-1.2,1.5v0c0.8,0.2,1.4,0.8,1.4,1.7c0,1-0.8,1.9-2.4,1.9c-0.7,0-1.4-0.2-1.7-0.4L58.5,33.2z"/>
		<path class="st0" d="M67.2,28.3c-0.2,0-0.4,0-0.7,0c-1.4,0.2-2.1,1.2-2.3,2.3h0c0.3-0.4,0.8-0.7,1.6-0.7c1.1,0,2,0.8,2,2.1
			c0,1.2-0.8,2.3-2.2,2.3c-1.4,0-2.3-1.1-2.3-2.8c0-1.3,0.5-2.3,1.1-2.9c0.5-0.5,1.3-0.9,2.1-1c0.3,0,0.5-0.1,0.6-0.1V28.3z
			 M66.9,32c0-0.9-0.5-1.5-1.3-1.5c-0.5,0-1,0.3-1.3,0.8c-0.1,0.1-0.1,0.2-0.1,0.4c0,1.1,0.5,1.9,1.4,1.9C66.4,33.6,66.9,33,66.9,32
			z"/>
		<path class="st0" d="M71,29.3h1.1l0.9,2.4c0.1,0.4,0.3,0.9,0.4,1.3h0c0.1-0.4,0.4-1.1,0.6-1.7l0.8-2.1h1.1l0.3,4.8h-0.8l-0.1-2.3
			c0-0.5-0.1-1.1-0.1-1.7h0c-0.1,0.4-0.3,0.8-0.5,1.6l-0.9,2.4h-0.6l-0.9-2.4c-0.2-0.5-0.4-1.2-0.5-1.6h0c0,0.6-0.1,1.2-0.1,1.7
			l-0.1,2.3h-0.8L71,29.3z"/>
		<path class="st0" d="M77.9,31.9c0,1.2,0.8,1.7,1.7,1.7c0.6,0,1-0.1,1.3-0.2L81,34c-0.3,0.1-0.8,0.3-1.6,0.3c-1.5,0-2.4-1-2.4-2.4
			s0.9-2.6,2.3-2.6c1.6,0,2,1.4,2,2.3c0,0.2,0,0.3,0,0.4H77.9z M80.4,31.3c0-0.6-0.2-1.4-1.2-1.4c-0.9,0-1.3,0.8-1.3,1.4H80.4z"/>
		<path class="st0" d="M85.8,34c-0.2,0.1-0.7,0.3-1.4,0.3c-1.5,0-2.4-1-2.4-2.5c0-1.5,1-2.6,2.6-2.6c0.5,0,1,0.1,1.2,0.3l-0.2,0.7
			c-0.2-0.1-0.5-0.2-1-0.2c-1.1,0-1.7,0.8-1.7,1.8c0,1.1,0.7,1.8,1.7,1.8c0.5,0,0.8-0.1,1.1-0.2L85.8,34z"/>
		<path class="st0" d="M90.5,34.2h-0.9v-2H89c-0.4,0-0.6,0.1-0.8,0.3c-0.4,0.3-0.5,0.9-0.7,1.4c-0.1,0.1-0.1,0.3-0.2,0.4h-0.9
			c0.1-0.2,0.2-0.3,0.3-0.5c0.2-0.5,0.3-1.1,0.8-1.5c0.2-0.1,0.3-0.2,0.5-0.3v0c-0.6-0.1-1.3-0.5-1.3-1.2c0-0.5,0.3-0.8,0.6-1
			c0.4-0.2,1-0.3,1.6-0.3c0.6,0,1.1,0,1.6,0.1V34.2z M89.6,29.9c-0.2,0-0.4,0-0.7,0c-0.6,0-1.3,0.2-1.3,0.8c0,0.6,0.8,0.8,1.3,0.8
			c0.4,0,0.5,0,0.7,0V29.9z"/>
		<path class="st0" d="M92.8,29.3v4.1H95v-4.1h0.9v4.2l0.5,0l0,2.2h-0.7l0-1.5h-3.7v-4.8H92.8z"/>
		<path class="st0" d="M97.9,31.9c0,1.2,0.8,1.7,1.7,1.7c0.6,0,1-0.1,1.3-0.2L101,34c-0.3,0.1-0.8,0.3-1.6,0.3c-1.5,0-2.4-1-2.4-2.4
			s0.9-2.6,2.3-2.6c1.6,0,2,1.4,2,2.3c0,0.2,0,0.3,0,0.4H97.9z M100.4,31.3c0-0.6-0.2-1.4-1.2-1.4c-0.9,0-1.3,0.8-1.3,1.4H100.4z"/>
		<path class="st0" d="M102.4,29.4c0.3-0.1,1-0.1,1.5-0.1c0.8,0,2.1,0.1,2.1,1.2c0,0.6-0.5,1-1,1.1v0c0.7,0.1,1.2,0.5,1.2,1.2
			c0,1.3-1.6,1.4-2.5,1.4c-0.5,0-1.1,0-1.4-0.1V29.4z M103.2,33.6c0.3,0,0.4,0,0.7,0c0.6,0,1.5-0.1,1.5-0.8c0-0.7-0.7-0.8-1.5-0.8
			h-0.6V33.6z M103.2,31.4h0.7c0.6,0,1.3-0.2,1.3-0.8c0-0.5-0.4-0.7-1.3-0.7c-0.3,0-0.5,0-0.7,0V31.4z"/>
	</g>
</g>
<g>
	<circle class="st1" cx="20.3" cy="20.1" r="19.7"/>
	<path class="st2" d="M29.7,33.3H10.9c-1.3,0-2.3-1-2.3-2.3V9.1c0-1.3,1-2.3,2.3-2.3h18.7c1.3,0,2.3,1,2.3,2.3v21.9
		C31.9,32.3,30.9,33.3,29.7,33.3z"/>
	<g>
		<path class="st1" d="M29.1,15.1H11.5c-0.5,0-0.9-0.4-0.9-0.9V11c0-0.5,0.4-0.9,0.9-0.9h17.5c0.5,0,0.9,0.4,0.9,0.9v3.2
			C29.9,14.7,29.5,15.1,29.1,15.1z"/>
		<g>
			<path class="st1" d="M14,19.7h-2.9c-0.2,0-0.4-0.2-0.4-0.4v-1.2c0-0.2,0.2-0.4,0.4-0.4H14c0.2,0,0.4,0.2,0.4,0.4v1.2
				C14.4,19.5,14.2,19.7,14,19.7z"/>
			<path class="st1" d="M14,23.2h-2.9c-0.2,0-0.4-0.2-0.4-0.4v-1.2c0-0.2,0.2-0.4,0.4-0.4H14c0.2,0,0.4,0.2,0.4,0.4v1.2
				C14.4,23,14.2,23.2,14,23.2z"/>
			<path class="st1" d="M14,26.6h-2.9c-0.2,0-0.4-0.2-0.4-0.4v-1.2c0-0.2,0.2-0.4,0.4-0.4H14c0.2,0,0.4,0.2,0.4,0.4v1.2
				C14.4,26.4,14.2,26.6,14,26.6z"/>
			<path class="st1" d="M14,30h-2.9c-0.2,0-0.4-0.2-0.4-0.4v-1.2c0-0.2,0.2-0.4,0.4-0.4H14c0.2,0,0.4,0.2,0.4,0.4v1.2
				C14.4,29.8,14.2,30,14,30z"/>
		</g>
		<g>
			<path class="st1" d="M19.2,19.7h-2.9c-0.2,0-0.4-0.2-0.4-0.4v-1.2c0-0.2,0.2-0.4,0.4-0.4h2.9c0.2,0,0.4,0.2,0.4,0.4v1.2
				C19.6,19.5,19.4,19.7,19.2,19.7z"/>
			<path class="st1" d="M19.2,23.2h-2.9c-0.2,0-0.4-0.2-0.4-0.4v-1.2c0-0.2,0.2-0.4,0.4-0.4h2.9c0.2,0,0.4,0.2,0.4,0.4v1.2
				C19.6,23,19.4,23.2,19.2,23.2z"/>
			<path class="st1" d="M19.2,26.6h-2.9c-0.2,0-0.4-0.2-0.4-0.4v-1.2c0-0.2,0.2-0.4,0.4-0.4h2.9c0.2,0,0.4,0.2,0.4,0.4v1.2
				C19.6,26.4,19.4,26.6,19.2,26.6z"/>
			<path class="st1" d="M19.2,30h-2.9c-0.2,0-0.4-0.2-0.4-0.4v-1.2c0-0.2,0.2-0.4,0.4-0.4h2.9c0.2,0,0.4,0.2,0.4,0.4v1.2
				C19.6,29.8,19.4,30,19.2,30z"/>
		</g>
		<g>
			<path class="st1" d="M24.3,19.7h-2.9c-0.2,0-0.4-0.2-0.4-0.4v-1.2c0-0.2,0.2-0.4,0.4-0.4h2.9c0.2,0,0.4,0.2,0.4,0.4v1.2
				C24.7,19.5,24.6,19.7,24.3,19.7z"/>
			<path class="st1" d="M24.3,23.2h-2.9c-0.2,0-0.4-0.2-0.4-0.4v-1.2c0-0.2,0.2-0.4,0.4-0.4h2.9c0.2,0,0.4,0.2,0.4,0.4v1.2
				C24.7,23,24.6,23.2,24.3,23.2z"/>
			<path class="st1" d="M24.3,26.6h-2.9c-0.2,0-0.4-0.2-0.4-0.4v-1.2c0-0.2,0.2-0.4,0.4-0.4h2.9c0.2,0,0.4,0.2,0.4,0.4v1.2
				C24.7,26.4,24.6,26.6,24.3,26.6z"/>
			<path class="st1" d="M24.3,30h-2.9c-0.2,0-0.4-0.2-0.4-0.4v-1.2c0-0.2,0.2-0.4,0.4-0.4h2.9c0.2,0,0.4,0.2,0.4,0.4v1.2
				C24.7,29.8,24.6,30,24.3,30z"/>
		</g>
		<path class="st1" d="M29.5,19.7h-2.9c-0.2,0-0.4-0.2-0.4-0.4v-1.2c0-0.2,0.2-0.4,0.4-0.4h2.9c0.2,0,0.4,0.2,0.4,0.4v1.2
			C29.9,19.5,29.7,19.7,29.5,19.7z"/>
		<path class="st1" d="M29.5,23.2h-2.9c-0.2,0-0.4-0.2-0.4-0.4v-1.2c0-0.2,0.2-0.4,0.4-0.4h2.9c0.2,0,0.4,0.2,0.4,0.4v1.2
			C29.9,23,29.7,23.2,29.5,23.2z"/>
		<path class="st1" d="M29.5,30h-2.9c-0.2,0-0.4-0.2-0.4-0.4v-4.7c0-0.2,0.2-0.4,0.4-0.4h2.9c0.2,0,0.4,0.2,0.4,0.4v4.7
			C29.9,29.8,29.7,30,29.5,30z"/>
	</g>
</g>
<g>
	<g>
		<g>
			<text transform="matrix(1 0 0 1 21.3975 14.5874)" class="st2 st3 st4">1.3</text>
		</g>
	</g>
</g>
</svg>
