<?xml version="1.0"?>
<svg xmlns="http://www.w3.org/2000/svg" height="512px" viewBox="0 0 464 464" width="512px" class=""><g><path d="m400 392c0 22.054688-17.945312 40-40 40h-72v-16h-88c-13.230469 0-24 10.769531-24 24s10.769531 24 24 24h88v-16h72c30.871094 0 56-25.128906 56-56v-40h-16zm0 0" data-original="#000000" class="active-path" data-old_color="#000000" fill="#FFFFFF"/><path d="m56.808594 176c8.03125-80.847656 76.222656-144 159.191406-144h32c83.335938 0 151.71875 63.726562 159.246094 145.097656l16.753906-1.097656c5.367188 0 10.535156.800781 15.457031 2.214844-7.074219-99.589844-90.058593-178.214844-191.457031-178.214844h-32c-101.398438 0-184.382812 78.617188-191.457031 178.214844 4.921875-1.40625 10.089843-2.214844 15.457031-2.214844zm0 0" data-original="#000000" class="active-path" data-old_color="#000000" fill="#FFFFFF"/><path d="m352 192v144c0 8.824219 7.175781 16 16 16s16-7.175781 16-16v-144c0-8.824219-7.175781-16-16-16s-16 7.183594-16 16zm0 0" data-original="#000000" class="active-path" data-old_color="#000000" fill="#FFFFFF"/><path d="m424 192h-24v144h16v-64h16v60.902344l32-10.664063v-90.238281c0-22.054688-17.945312-40-40-40zm8 64h-16v-16h16zm0-32h-16v-16h16zm0 0" data-original="#000000" class="active-path" data-old_color="#000000" fill="#FFFFFF"/><path d="m96 176c-8.824219 0-16 7.175781-16 16v144c0 8.824219 7.175781 16 16 16s16-7.175781 16-16v-144c0-8.816406-7.175781-16-16-16zm0 0" data-original="#000000" class="active-path" data-old_color="#000000" fill="#FFFFFF"/><path d="m0 232v90.230469l32 10.664062v-60.902343h16v64h16v-144h-24c-22.054688.007812-40 17.953124-40 40.007812zm48 24h-16v-16h16zm0-32h-16v-16h16zm0 0" data-original="#000000" class="active-path" data-old_color="#000000" fill="#FFFFFF"/></g> </svg>
