<svg id="Слой_1" data-name="Слой 1" xmlns="http://www.w3.org/2000/svg" viewBox="0 0 180 45">
  <title>cena snizhena</title>
  <g>
    <path d="M59.564,25.8V30H57.355v-2.22H48.681v-10.5h2.387V25.8h4.626v-8.52H58.08V25.8Z" fill="#626262"/>
    <path d="M68.963,25.835v1.95H60.927v-10.5H68.77v1.95H63.314v2.28h4.819v1.89H63.314v2.43Z" fill="#626262"/>
    <path d="M80.2,17.285v10.5H77.8v-4.3H73.084v4.3h-2.4v-10.5h2.4v4.14H77.8v-4.14Z" fill="#626262"/>
    <path d="M89.6,25.535H84.782l-.92,2.25H81.4l4.626-10.5H88.4l4.641,10.5H90.52Zm-.756-1.845L87.2,19.67,85.553,23.69Z" fill="#626262"/>
    <path d="M100.208,27.268a5.178,5.178,0,0,1-2.017-1.935,5.7,5.7,0,0,1,0-5.6,5.178,5.178,0,0,1,2.017-1.935,6.37,6.37,0,0,1,5.322-.218,4.9,4.9,0,0,1,1.831,1.38l-1.542,1.44a3.3,3.3,0,0,0-2.609-1.23,3.433,3.433,0,0,0-1.72.428,3.029,3.029,0,0,0-1.179,1.192,3.8,3.8,0,0,0,0,3.48,3.029,3.029,0,0,0,1.179,1.192,3.433,3.433,0,0,0,1.72.428,3.283,3.283,0,0,0,2.609-1.245l1.542,1.439a4.81,4.81,0,0,1-1.838,1.4,6.051,6.051,0,0,1-2.446.479A5.907,5.907,0,0,1,100.208,27.268Z" fill="#626262"/>
    <path d="M118.23,17.285v10.5h-2.4v-4.3h-4.714v4.3h-2.4v-10.5h2.4v4.14h4.714v-4.14Z" fill="#626262"/>
    <path d="M120.6,17.285h2.387v6.84l4.952-6.84h2.253v10.5h-2.372V20.96l-4.952,6.825H120.6Z" fill="#626262"/>
    <path d="M141.966,23.555h-1.512v4.23H138.1v-4.23h-1.542l-2.328,4.23h-2.772l3.113-5.49-2.921-5.01h2.536l2.327,4.245H138.1V17.285h2.357V21.53H142l2.342-4.245h2.535l-2.905,5.01,3.1,5.49h-2.772Z" fill="#626262"/>
    <path d="M156.036,25.835v1.95H148v-10.5h7.843v1.95h-5.456v2.28h4.819v1.89h-4.819v2.43Z" fill="#626262"/>
    <path d="M167.273,17.285v10.5h-2.4v-4.3h-4.715v4.3h-2.4v-10.5h2.4v4.14h4.715v-4.14Z" fill="#626262"/>
    <path d="M176.674,25.535h-4.818l-.92,2.25h-2.461l4.626-10.5h2.372l4.641,10.5h-2.521Zm-.756-1.845-1.646-4.021-1.646,4.021Z" fill="#626262"/>
  </g>
  <circle cx="22.052" cy="22.567" r="21.5" fill="#c9403d"/>
  <path d="M29.284,24.26a38.23,38.23,0,0,1-22.7-13.78,36.91,36.91,0,0,0,22.67,9.75V17.7c0-.66.1-.72.66-.39l8.1,4.65c.44.25.44.41,0,.66l-8.09,4.69c-.48.28-.6.2-.6-.37C29.284,26.05,29.284,25.16,29.284,24.26Z" fill="#fff"/>
  <path d="M6.094,26.49V19.23c0-.59.23-.79.82-.79h3.65c.7,0,.87.17.87.86q0,7.19,0,14.39c0,.62-.18.82-.79.82H6.874c-.61,0-.8-.19-.8-.81V26.48Z" fill="#fff"/>
  <path d="M18.154,28.65v5c0,.64-.18.83-.82.83h-3.74c-.62,0-.81-.19-.81-.8V23.53c0-.64.19-.83.82-.83h3.73c.61,0,.81.19.81.8C18.154,25.24,18.154,26.95,18.154,28.65Z" fill="#fff"/>
  <path d="M24.864,30.47v3.27c0,.57-.19.77-.75.77h-3.86c-.56,0-.75-.21-.75-.77V27.15c0-.57.19-.76.75-.76h3.86c.56,0,.75.2.75.76Z" fill="#fff"/>
  <path d="M28.894,34.52h-1.88c-.56,0-.75-.21-.75-.77v-3.6c0-.56.19-.76.75-.76h3.85c.56,0,.75.21.75.77V33.8c0,.51-.25.73-.76.72Z" fill="#fff"/>
  <path d="M35.634,31.84h2c.49,0,.69.21.7.69s0,.87,0,1.3-.2.67-.63.67h-4.11c-.41,0-.6-.24-.61-.65s0-.89,0-1.34.22-.66.68-.67Z" fill="#fff"/>
</svg>
