<?xml version="1.0"?>
<svg xmlns="http://www.w3.org/2000/svg" xmlns:xlink="http://www.w3.org/1999/xlink" version="1.1" id="Capa_1" x="0px" y="0px" viewBox="0 0 278.775 278.775" style="enable-background:new 0 0 278.775 278.775;" xml:space="preserve" width="512px" height="512px" class=""><g><g>
	<path d="M256.275,28.067H22.5C10.093,28.067,0,38.16,0,50.567v177.642c0,12.407,10.093,22.5,22.5,22.5   h233.775c12.407,0,22.5-10.093,22.5-22.5V50.567C278.775,38.16,268.682,28.067,256.275,28.067z M263.775,228.208   c0,4.136-3.364,7.5-7.5,7.5H22.5c-4.135,0-7.5-3.364-7.5-7.5V50.567c0-4.136,3.365-7.5,7.5-7.5h233.775c4.136,0,7.5,3.364,7.5,7.5   V228.208z" data-original="#000002" class="active-path" data-old_color="#000002" fill="#FFFFFF"/>
	<path d="M186.715,81.923c-6.465-11.924-17.959-18.491-32.366-18.491c-9.513,0-19.73,2.813-29.546,8.135   l-2.402,1.302c-25.616,13.89-35.938,37.549-25.101,57.535l13.084,24.131c0,0.001,0.001,0.002,0.002,0.003   c0,0,0.001,0.001,0.001,0.002l22.375,41.267c6.831,12.598,18.246,19.536,32.144,19.536c8.398,0,17.589-2.577,26.58-7.452   l8.778-4.76c11.098-6.017,19.203-13.983,23.438-23.036c4.922-10.521,4.395-21.853-1.525-32.77L186.715,81.923z M173.528,89.072   l9.511,17.541l-24.928,13.517l-20.612-38.016c5.784-2.391,11.612-3.681,16.851-3.681C163.247,78.432,169.7,82.012,173.528,89.072z    M124.327,89.291l20.598,37.988l-24.928,13.517l-9.511-17.541C102.908,109.278,113.933,96.529,124.327,89.291z M210.115,173.738   c-2.825,6.038-8.862,11.793-17.001,16.206l-8.779,4.76c-6.803,3.689-13.521,5.639-19.43,5.639c-8.375,0-14.753-3.932-18.958-11.686   l-18.801-34.676l63.042-34.182l18.801,34.675C212.601,161.134,212.979,167.615,210.115,173.738z" data-original="#000002" class="active-path" data-old_color="#000002" fill="#FFFFFF"/>
</g></g> </svg>
