<?xml version="1.0"?>
<svg xmlns="http://www.w3.org/2000/svg" height="512px" viewBox="-63 0 509 509.60457" width="512px" class=""><g><path d="m167.730469 36.636719c-.457031.347656-.882813.734375-1.269531 1.160156-.519532.59375-.960938 1.25-1.316407 1.957031-.136719.273438-.257812.558594-.355469.847656-.390624.988282-.605468 2.039063-.632812 3.101563v9.144531h54.859375v-9.144531c-.027344-1.0625-.242187-2.113281-.632813-3.101563-.097656-.289062-.21875-.574218-.355468-.847656-.355469-.707031-.796875-1.363281-1.316406-1.957031-.386719-.425781-.8125-.8125-1.269532-1.160156-1.566406-1.304688-3.53125-2.035157-5.570312-2.078125h-36.570313c-2.039062.042968-4 .773437-5.570312 2.078125zm0 0" data-original="#000000" class="active-path" data-old_color="#000000" fill="#FFFFFF"/><path d="m165.144531 120.796875c.351563.703125.789063 1.355469 1.308594 1.945313.390625.429687.820313.820312 1.277344 1.171874 1.570312 1.300782 3.53125 2.035157 5.570312 2.074219h36.570313c2.039062-.039062 4-.773437 5.570312-2.074219.460938-.351562.886719-.742187 1.277344-1.171874.519531-.589844.957031-1.242188 1.308594-1.945313.136718-.277344.257812-.5625.355468-.851563.390626-.988281.605469-2.039062.632813-3.097656v-9.144531h-54.859375v9.144531c.027344 1.058594.242188 2.109375.632812 3.097656.097657.289063.21875.574219.355469.851563zm0 0" data-original="#000000" class="active-path" data-old_color="#000000" fill="#FFFFFF"/><path d="m149.292969 289.882812 10.367187 82.964844h63.851563l10.371093-82.964844c-1.140624-.453124-2.175781-1.136718-3.046874-2l-18.285157-18.289062c-1.714843-1.710938-2.679687-4.039062-2.679687-6.460938v-118.859374h-36.570313v118.859374c0 2.421876-.964843 4.75-2.679687 6.460938l-18.285156 18.289062c-.871094.863282-1.90625 1.546876-3.042969 2zm33.148437-118.179687c0-5.050781 4.09375-9.144531 9.144532-9.144531 5.050781 0 9.144531 4.09375 9.144531 9.144531v45.714844c0 5.046875-4.09375 9.140625-9.144531 9.140625-5.050782 0-9.144532-4.09375-9.144532-9.140625zm0 118.855469h18.289063c5.046875 0 9.140625 4.09375 9.140625 9.144531s-4.09375 9.144531-9.140625 9.144531h-18.289063c-5.046875 0-9.140625-4.09375-9.140625-9.144531s4.09375-9.144531 9.140625-9.144531zm0 36.574218h18.289063c5.046875 0 9.140625 4.09375 9.140625 9.140626 0 5.050781-4.09375 9.144531-9.140625 9.144531h-18.289063c-5.046875 0-9.140625-4.09375-9.140625-9.144531 0-5.046876 4.09375-9.140626 9.140625-9.140626zm0 0" data-original="#000000" class="active-path" data-old_color="#000000" fill="#FFFFFF"/><path d="m164.15625 71.132812h54.859375v18.285157h-54.859375zm0 0" data-original="#000000" class="active-path" data-old_color="#000000" fill="#FFFFFF"/><path d="m303.914062 311.078125 3.921876-51-54.855469 24.375-9.9375 79.617187c21.347656-16.410156 41.675781-34.109374 60.871093-52.992187zm0 0" data-original="#000000" class="active-path" data-old_color="#000000" fill="#FFFFFF"/><path d="m328.730469 162.558594v-27.425782c0-60.234374-12.242188-95.671874-19.539063-111.445312-2.480468-5.214844-7.285156-8.949219-12.957031-10.054688l-68.078125-13.632812v23.359375c.066406.054687.109375.136719.175781.191406 1.234375 1.136719 2.359375 2.378907 3.363281 3.722657.121094.15625.265626.292968.375.457031 1.039063 1.433593 1.933594 2.964843 2.671876 4.570312.042968.101563.109374.183594.152343.285157.730469 1.636718 1.296875 3.34375 1.691407 5.089843 0 .113281.074218.203125.09375.3125.40625 1.878907.613281 3.792969.621093 5.714844v73.144531c-.007812 1.917969-.214843 3.835938-.621093 5.710938 0 .109375-.074219.210937-.09375.3125-.394532 1.75-.960938 3.453125-1.691407 5.09375-.042969.097656-.109375.191406-.152343.292968-.742188 1.605469-1.636719 3.132813-2.671876 4.570313-.109374.164063-.253906.300781-.375.457031-1.003906 1.339844-2.128906 2.585938-3.363281 3.71875-.066406.058594-.109375.140625-.175781.195313v122.148437l11.171875 11.160156 1.492187-.664062 73.03125-32.457031c3.164063-4.480469 14.878907-24.539063 14.878907-74.828125zm0 0" data-original="#000000" class="active-path" data-old_color="#000000" fill="#FFFFFF"/><path d="m309.042969 439.589844 1.828125-5.632813c1.25-3.75 4.765625-6.269531 8.714844-6.253906v-106.183594c-15.140626 14.625-34.433594 32.546875-51.886719 46.554688-1.671875 1.351562-3.21875 2.558593-4.789063 3.792969l-.382812.292968c-8.402344 7.246094-17.828125 13.214844-27.96875 17.710938-.40625.09375-.820313.160156-1.234375.199218-1.660157.605469-3.402344.964844-5.167969 1.0625h-27.425781v28.726563c16.128906 4.105469 27.417969 18.628906 27.417969 35.273437 0 16.644532-11.289063 31.167969-27.417969 35.273438v19.199219c27.203125-1.144531 53.53125-9.949219 75.949219-25.410157 15.222656-11.082031 26.550781-26.695312 32.363281-44.605468zm0 0" data-original="#000000" class="active-path" data-old_color="#000000" fill="#FFFFFF"/><path d="m379.015625 341.898438c2.613281-1.804688 4.074219-4.855469 3.847656-8.019532l-7.878906-126.097656c-.160156-2.570312-1.394531-4.953125-3.402344-6.566406l-25.132812-20.113282c-2.816407 46.554688-15.71875 64.851563-19.503907 69.230469l-3.21875 41.828125c2.78125-1.894531 6.382813-2.085937 9.351563-.503906s4.816406 4.683594 4.792969 8.046875v84.84375c11.035156-16.578125 24.972656-31.027344 41.144531-42.648437zm0 0" data-original="#000000" class="active-path" data-old_color="#000000" fill="#FFFFFF"/><path d="m72.261719 433.957031 1.828125 5.632813c5.808594 17.90625 17.136718 33.519531 32.359375 44.597656 22.425781 15.464844 48.773437 24.273438 75.992187 25.40625v-19.199219c-16.128906-4.105469-27.417968-18.628906-27.417968-35.273437 0-16.644532 11.289062-31.167969 27.417968-35.273438v-28.714844h-27.425781c-1.777344-.09375-3.53125-.453124-5.203125-1.0625-.414062-.039062-.828125-.105468-1.234375-.199218-10.125-4.5-19.53125-10.464844-27.921875-17.703125l-.402344-.308594c-1.5625-1.234375-3.109375-2.433594-4.78125-3.785156-17.453125-14.007813-36.746094-31.917969-51.886718-46.554688v106.183594c3.9375 0 7.433593 2.519531 8.675781 6.253906zm0 0" data-original="#000000" class="active-path" data-old_color="#000000" fill="#FFFFFF"/><path d="m209.871094 455.132812c0 10.097657-8.1875 18.285157-18.285156 18.285157-10.097657 0-18.285157-8.1875-18.285157-18.285157 0-10.101562 8.1875-18.285156 18.285157-18.285156 10.097656 0 18.285156 8.183594 18.285156 18.285156zm0 0" data-original="#000000" class="active-path" data-old_color="#000000" fill="#FFFFFF"/><path d="m142.324219 269.832031 1.492187.660157 11.199219-11.144532v-122.160156c-.066406-.054688-.109375-.136719-.175781-.191406-1.234375-1.132813-2.359375-2.378906-3.363282-3.71875-.117187-.15625-.265624-.292969-.375-.460938-1.035156-1.429687-1.925781-2.960937-2.660156-4.570312 0-.109375-.121094-.199219-.164062-.300782-.726563-1.636718-1.292969-3.339843-1.691406-5.082031 0-.109375-.074219-.210937-.09375-.320312-.40625-1.871094-.613282-3.78125-.621094-5.695313v-73.144531c.007812-1.921875.214844-3.835937.621094-5.714844 0-.109375.074218-.210937.09375-.3125.394531-1.746093.960937-3.453125 1.691406-5.089843 0-.101563.109375-.191407.164062-.292969.734375-1.609375 1.625-3.140625 2.660156-4.570313.109376-.167968.257813-.304687.375-.457031 1.003907-1.34375 2.128907-2.589844 3.363282-3.722656.066406-.054688.109375-.136719.175781-.191407v-23.351562l-68.078125 13.613281c-5.671875 1.105469-10.480469 4.835938-12.957031 10.058594-7.296875 15.789063-19.539063 51.226563-19.539063 111.460937v27.425782c0 49.984375 11.578125 70.109375 14.878906 74.828125zm0 0" data-original="#000000" class="active-path" data-old_color="#000000" fill="#FFFFFF"/><path d="m4.15625 341.90625c16.171875 11.617188 30.113281 26.066406 41.144531 42.640625v-84.84375c-.023437-3.371094 1.824219-6.472656 4.800781-8.054687 2.972657-1.582032 6.582032-1.382813 9.359376.519531l-3.1875-41.835938c-3.785157-4.378906-16.6875-22.675781-19.503907-69.230469l-25.125 20.113282c-2.011719 1.609375-3.25 3.996094-3.410156 6.566406l-7.90625 126.097656c-.234375 3.164063 1.222656 6.21875 3.828125 8.027344zm0 0" data-original="#000000" class="active-path" data-old_color="#000000" fill="#FFFFFF"/><path d="m79.257812 311.078125c19.191407 18.894531 39.523438 36.605469 60.871094 53.027344l-9.945312-79.617188-54.859375-24.375zm0 0" data-original="#000000" class="active-path" data-old_color="#000000" fill="#FFFFFF"/></g> </svg>
