<?xml version="1.0"?>
<svg xmlns="http://www.w3.org/2000/svg" xmlns:xlink="http://www.w3.org/1999/xlink" version="1.1" id="Capa_1" x="0px" y="0px" viewBox="0 0 512 512" style="enable-background:new 0 0 512 512;" xml:space="preserve" width="512px" height="512px" class=""><g><g>
	<g>
		<path d="M331,80v25c0,8.284-6.716,15-15,15H196c-8.284,0-15-6.716-15-15V80H80v352h352V80H331z" data-original="#000000" class="active-path" data-old_color="#000000" fill="#FFFFFF"/>
	</g>
</g><g>
	<g>
		<path d="M467,0H45C20.187,0,0,20.187,0,45v422c0,24.813,20.187,45,45,45h422c24.813,0,45-20.187,45-45V45    C512,20.187,491.813,0,467,0z M462,447c0,8.284-6.716,15-15,15H65c-8.284,0-15-6.716-15-15V65c0-8.284,6.716-15,15-15h131    c8.284,0,15,6.716,15,15v25h90V65c0-8.284,6.716-15,15-15h131c8.284,0,15,6.716,15,15V447z" data-original="#000000" class="active-path" data-old_color="#000000" fill="#FFFFFF"/>
	</g>
</g></g> </svg>
