<?xml version="1.0"?>
<svg xmlns="http://www.w3.org/2000/svg" height="512px" viewBox="-41 -154 1331.2512 1331" width="512px" class=""><g><path d="m865.203125 599.914062v-284.242187c0-85.207031-69.320313-154.523437-154.523437-154.523437h-178.476563c-85.195313 0-154.515625 69.316406-154.515625 154.523437v284.242187c0 134.414063 109.34375 243.757813 243.757812 243.757813 134.402344 0 243.757813-109.34375 243.757813-243.757813zm-48.757813-284.242187v39.199219h-123.929687v-34c0-30.625-19.488281-56.78125-46.695313-66.753906v-44.21875h64.859376c58.324218 0 105.765624 47.453124 105.765624 105.773437zm-217.316406 5.199219c0-12.300782 10.011719-22.304688 22.316406-22.304688 12.292969 0 22.320313 10.003906 22.320313 22.304688v58.375c0 12.304687-10.027344 22.3125-22.320313 22.3125-12.304687 0-22.316406-10.007813-22.316406-22.3125zm-66.925781-110.972656h64.867187v44.21875c-27.21875 9.972656-46.695312 36.128906-46.695312 66.753906v34h-123.9375v-39.199219c0-58.320313 47.445312-105.773437 105.765625-105.773437zm-105.765625 390.015624v-196.292968h128.246094c9.96875 27.210937 36.140625 46.6875 66.761718 46.6875 30.628907 0 56.78125-19.476563 66.757813-46.6875h128.242187v196.292968c0 107.527344-87.476562 195.007813-195 195.007813-107.53125 0-195.007812-87.480469-195.007812-195.007813zm0 0" data-original="#000000" class="active-path" data-old_color="#000000" fill="#FFFFFF"/><path d="m1147.957031 941.164062c13.460938 0 24.382813-10.910156 24.382813-24.375 0-13.457031-10.921875-24.375-24.382813-24.375h-77.191406c-13.472656 0-24.375 10.917969-24.375 24.375 0 13.464844 10.902344 24.375 24.375 24.375zm0 0" data-original="#000000" class="active-path" data-old_color="#000000" fill="#FFFFFF"/><path d="m999.304688 941.164062c13.460937 0 24.378906-10.910156 24.378906-24.375 0-13.457031-10.917969-24.375-24.378906-24.375h-.667969c-13.460938 0-24.378907 10.917969-24.378907 24.375 0 13.464844 10.917969 24.375 24.378907 24.375zm0 0" data-original="#000000" class="active-path" data-old_color="#000000" fill="#FFFFFF"/><path d="m196.734375 39.277344h.648437c13.472657 0 24.375-10.925782 24.375-24.386719 0-13.460937-10.902343-24.375-24.375-24.375h-.648437c-13.472656 0-24.375 10.914063-24.375 24.375s10.902344 24.386719 24.375 24.386719zm0 0" data-original="#000000" class="active-path" data-old_color="#000000" fill="#FFFFFF"/><path d="m1143.082031-9.484375h-848.277343c-13.464844 0-24.375 10.914063-24.375 24.375s10.910156 24.386719 24.375 24.386719h848.277343c29.578125 0 53.632813 24.054687 53.632813 53.621094v819.027343c0 29.558594-24.054688 53.625-53.632813 53.625h-1043.28125c-29.578125 0-53.628906-24.066406-53.628906-53.625v-819.027343c0-29.566407 24.050781-53.621094 53.628906-53.621094h26.898438c13.460937 0 24.375-10.925782 24.375-24.386719 0-13.460937-10.914063-24.375-24.375-24.375h-26.898438c-56.453125 0-102.382812 45.929687-102.382812 102.382813v819.027343c0 56.453125 45.929687 102.382813 102.382812 102.382813h1043.28125c56.457031 0 102.382813-45.929688 102.382813-102.382813v-819.027343c0-56.453126-45.925782-102.382813-102.382813-102.382813zm0 0" data-original="#000000" class="active-path" data-old_color="#000000" fill="#FFFFFF"/></g> </svg>
